<?xml version="1.0" encoding="UTF-8" standalone="no"?>
<!DOCTYPE svg PUBLIC "-//W3C//DTD SVG 1.1//EN" "http://www.w3.org/Graphics/SVG/1.1/DTD/svg11.dtd">
<svg width="100%" height="100%" viewBox="0 0 512 512" version="1.1" xmlns="http://www.w3.org/2000/svg" xmlns:xlink="http://www.w3.org/1999/xlink" xml:space="preserve" xmlns:serif="http://www.serif.com/" style="fill-rule:evenodd;clip-rule:evenodd;stroke-linejoin:round;stroke-miterlimit:2;">
    <g>
        <path d="M446.245,92.05C441.366,84.881 433.456,79.122 423.049,75.317C408.247,69.91 388.786,68.932 368.826,74.286C348.866,79.642 332.524,90.241 322.449,102.317C312.376,114.393 311.291,125.495 312.279,137.56C313.273,149.711 324.722,160.175 339.524,165.583C354.326,170.99 373.813,171.951 393.773,166.598C413.733,161.242 430.093,150.669 440.166,138.593C450.241,126.516 453.94,113.597 450.762,101.824C449.972,98.889 448.767,96.081 447.186,93.485C446.888,92.995 446.571,92.525 446.247,92.046L446.245,92.05ZM302.052,101.518C165.914,92.288 163.209,256.812 167.844,369.064C157.469,397.505 110.359,440.447 73.611,463.397L101.113,503.569C123.492,490.446 207.899,428.306 213.844,415.625C234.212,372.182 241.058,327.022 238.844,282.719C295.31,354.663 286.025,422.687 269.973,492.438L326.8,492.995C338.217,467.194 349.706,301.141 287.155,258.936C264.235,229.319 301.134,189.779 326.967,197.036C346.763,202.598 354.299,206.706 354.299,222.198L355.806,345.438L396.72,342.326L396.72,229.838C396.72,200.3 399.923,190.452 391.293,180.024C374.127,184.545 349.226,186.217 333.094,180.967C314.672,174.97 301.951,159.005 296.031,139.685C292.549,128.315 296.5,106.134 302.052,101.518Z" style="fill:white;fill-rule:nonzero;"/>
    </g>
</svg>
